<?xml version="1.0" encoding="utf-8"?>
<!-- Generator: Adobe Illustrator 19.0.0, SVG Export Plug-In . SVG Version: 6.00 Build 0)  -->
<svg version="1.1" id="Layer_1" xmlns="http://www.w3.org/2000/svg" xmlns:xlink="http://www.w3.org/1999/xlink" x="0px" y="0px"
	 viewBox="-70.7 323.3 299.3 128" style="enable-background:new -70.7 323.3 299.3 128;" xml:space="preserve">
<style type="text/css">
	.st0{fill:#3C71B6;}
	.st1{fill:none;stroke:#FFFFFF;stroke-width:3;stroke-linecap:round;stroke-miterlimit:10;}
	.st2{fill:#FFFFFD;}
	.st3{font-family:'Arvo';}
	.st4{font-size:23.7819px;}
</style>
<g id="XMLID_3_">
	<g id="XMLID_9_">
		<path id="XMLID_1_" class="st0" d="M33,425.1l-35.1,20.3c-6.2,3.6-13.8,3.6-20,0l-35.1-20.3c-6.2-3.6-10-10.2-10-17.3v-40.6
			c0-7.1,3.8-13.7,10-17.3l35.1-20.3c6.2-3.6,13.8-3.6,20,0L33,349.9c6.2,3.6,10,10.2,10,17.3v40.6C43,414.9,39.2,421.5,33,425.1z"
			/>
		<path id="XMLID_5_" class="st1" d="M-35.6,398.3v-42.4l23.5,13.6l23.7-13.6v48.4c0,0-41,0-43.5,0s-3.7,3.7-3.7,6
			c0,2.3,1.4,5.1,3.3,5.1c1.9,0,15,0,15,0"/>
		<polygon id="XMLID_6_" class="st2" points="-13.1,426.9 -18.2,421.6 -23.3,426.9 -23.3,409.8 -13.1,409.8 		"/>
		<line id="XMLID_8_" class="st1" x1="-11" y1="415.4" x2="12.3" y2="415.4"/>
		<rect id="XMLID_7_" x="-12.5" y="412.1" class="st0" width="1.5" height="5.2"/>
	</g>
	<text transform="matrix(1 0 0 1 54.0158 379.9065)" class="st3 st4">Pustaka Digital</text>
	<text transform="matrix(1 0 0 1 54.0158 409.9065)" class="st3 st4">Mitra Netra</text>
</g>
</svg>
