<?xml version="1.0" encoding="utf-8"?>
<!-- Generator: Adobe Illustrator 19.0.0, SVG Export Plug-In . SVG Version: 6.00 Build 0)  -->
<svg version="1.1" id="Layer_1" xmlns="http://www.w3.org/2000/svg" xmlns:xlink="http://www.w3.org/1999/xlink" x="0px" y="0px"
	 viewBox="0 0 392.3 277.4" style="enable-background:new 0 0 392.3 277.4;" xml:space="preserve">
<style type="text/css">
	.st0{fill:#3C71B6;}
	.st1{fill:none;stroke:#FFFFFF;stroke-width:3;stroke-linecap:round;stroke-miterlimit:10;}
	.st2{fill:#FFFFFD;}
	.st3{font-family:'Arvo';}
	.st4{font-size:23.7819px;}
</style>
<g id="XMLID_3_">
	<g id="XMLID_9_">
		<path id="XMLID_1_" class="st0" d="M142,176.5l-35.1,20.3c-6.2,3.6-13.8,3.6-20,0l-35.1-20.3c-6.2-3.6-10-10.2-10-17.3v-40.6
			c0-7.1,3.8-13.7,10-17.3L86.9,81c6.2-3.6,13.8-3.6,20,0l35.1,20.3c6.2,3.6,10,10.2,10,17.3v40.6C152,166.3,148.2,172.9,142,176.5z
			"/>
		<path id="XMLID_5_" class="st1" d="M73.4,149.7v-42.4l23.5,13.6l23.7-13.6v48.4c0,0-41,0-43.5,0c-2.5,0-3.7,3.7-3.7,6
			c0,2.3,1.4,5.1,3.3,5.1s15,0,15,0"/>
		<polygon id="XMLID_6_" class="st2" points="95.9,178.3 90.8,173 85.7,178.3 85.7,161.2 95.9,161.2 		"/>
		<line id="XMLID_8_" class="st1" x1="98" y1="166.8" x2="121.3" y2="166.8"/>
		<rect id="XMLID_7_" x="96.5" y="163.5" class="st0" width="1.5" height="5.2"/>
	</g>
	<text id="XMLID_10_" transform="matrix(1 0 0 1 163.0158 131.3065)"><tspan x="0" y="0" class="st3 st4">Pustaka Digital</tspan><tspan x="0" y="30" class="st3 st4">Mitra Netra</tspan></text>
</g>
</svg>
